# xmcd
#
# Track frame offsets: 
#        150
#        11680
#        25155
#        38128
#        56144
#        75342
#        91454
#        101914
#        114532
#        129323
#        142268
#        153226
#        163076
#        178798
#        189373
#        204135
#        219436
#        234616
#        247311
#        259985
#
# Disc length: 3638 seconds
#
# Revision: 0
# Processed by: cddbd v1.5.2PL0 Copyright (c) Steve Scherf et al.
# Submitted via: ExactAudioCopy v0.99pb5
#
DISCID=190e3414
DTITLE=Various Artist - Diamonds Of Western Hits CD2
DYEAR=2007
DGENRE=Country
TTITLE0=Donna Fargo - Happiest Girl In The Whole USA
TTITLE1=Faron Young - It's Four In The Morning
TTITLE2=Conway Twitty - I Can't Stop Loving You
TTITLE3=Billy Swan - I Can Help
TTITLE4=Don David - Road To Tijuana
TTITLE5=Juice Newton and Willie Nelson - Funny How Time Slips Away
TTITLE6=Floyd Cramer - San Antonio Rose
TTITLE7=Johnny Cash - Folsom Prison Blues
TTITLE8=Jeannie C.Riley - Harper Valley PTA
TTITLE9=Roy Drusky - Your Cheatin' Heart
TTITLE10=Waylon Jennings - Sally Was A Good Old Girl
TTITLE11=Dave Dudley - Six Days On The Road
TTITLE12=Billie Jo Spears - Blanket On The Ground
TTITLE13=Don Gibson - Oh, Lonesome Me
TTITLE14=Highway Cowboys - Banjo Fever
TTITLE15=Freddy Fender - La Paloma
TTITLE16=Merle Haggard - Today I Started Loving You Again
TTITLE17=Zack Van Arsdale - Born Too Late
TTITLE18=Rosanne Cash - D-I-V-O-R-C-E
TTITLE19=Bobby Bare - Detroit City
EXTD=
EXTT0=
EXTT1=
EXTT2=
EXTT3=
EXTT4=
EXTT5=
EXTT6=
EXTT7=
EXTT8=
EXTT9=
EXTT10=
EXTT11=
EXTT12=
EXTT13=
EXTT14=
EXTT15=
EXTT16=
EXTT17=
EXTT18=
EXTT19=
PLAYORDER=
